<?xml version="1.0" standalone="no"?>
<!DOCTYPE svg PUBLIC "-//W3C//DTD SVG 20010904//EN"
 "http://www.w3.org/TR/2001/REC-SVG-20010904/DTD/svg10.dtd">
<svg version="1.0" xmlns="http://www.w3.org/2000/svg"
 width="808.000000pt" height="808.000000pt" viewBox="0 0 808.000000 808.000000"
 preserveAspectRatio="xMidYMid meet">
<metadata>
Created by potrace 1.14, written by Peter Selinger 2001-2017
</metadata>
<g transform="translate(0.000000,808.000000) scale(0.100000,-0.100000)"
fill="#000000" stroke="none">
<path d="M589 8076 c-2 -2 -18 -6 -35 -9 -36 -6 -156 -47 -164 -56 -3 -3 -23
-15 -45 -26 -21 -11 -73 -54 -115 -95 -88 -87 -138 -175 -169 -295 l-21 -80 3
-3495 c1 -1922 5 -3504 9 -3515 54 -165 87 -224 178 -315 42 -42 92 -83 112
-93 21 -10 40 -22 43 -27 4 -6 11 -8 16 -5 5 4 9 1 9 -6 0 -7 3 -9 7 -6 3 4
17 0 30 -8 13 -9 23 -13 23 -10 0 3 9 1 19 -4 10 -6 36 -14 57 -18 22 -4 1598
-8 3504 -8 3395 0 3466 0 3525 19 33 11 63 20 67 20 3 1 9 4 13 8 4 4 31 19
61 33 74 36 200 163 242 242 18 34 42 90 55 125 l22 63 2 3500 c3 3402 2 3502
-16 3570 -25 92 -40 130 -75 190 -34 58 -158 183 -201 205 -16 8 -37 19 -45
25 -13 10 -101 46 -122 51 -5 1 -9 2 -10 4 -2 1 -14 4 -28 8 -28 6 -6944 14
-6951 8z"/>
</g>
</svg>
