<svg width="100" height="101" viewBox="0 0 100 101" fill="none" xmlns="http://www.w3.org/2000/svg">
<rect width="100" height="101" rx="8" fill="#303841"/>
<path d="M25 20L28.7723 21.6598C30.7131 22.5138 32.9233 22.5138 34.8641 21.6598L36.1439 21.0967C37.6977 20.413 39.4923 20.5649 40.9091 21.5V21.5C42.3259 22.4351 44.1205 22.587 45.6743 21.9033L46.9541 21.3402C48.8949 20.4862 51.1051 20.4862 53.0459 21.3402L53.7723 21.6598C55.7131 22.5138 57.9233 22.5138 59.8641 21.6598L61.1439 21.0967C62.6977 20.413 64.4923 20.5649 65.9091 21.5V21.5C67.3259 22.4351 69.1205 22.587 70.6743 21.9033L75 20" stroke="#DEAD60" stroke-width="5" stroke-linecap="round"/>
<path d="M25 49L28.7723 50.6598C30.7131 51.5138 32.9233 51.5138 34.8641 50.6598L36.1439 50.0967C37.6977 49.413 39.4923 49.5649 40.9091 50.5V50.5C42.3259 51.4351 44.1205 51.587 45.6743 50.9033L46.9541 50.3402C48.8949 49.4862 51.1051 49.4862 53.0459 50.3402L53.7723 50.6598C55.7131 51.5138 57.9233 51.5138 59.8641 50.6598L61.1439 50.0967C62.6977 49.413 64.4923 49.5649 65.9091 50.5V50.5C67.3259 51.4351 69.1205 51.587 70.6743 50.9033L75 49" stroke="#DEAD60" stroke-width="5" stroke-linecap="round"/>
<path d="M25 78L28.7723 79.6598C30.7131 80.5138 32.9233 80.5138 34.8641 79.6598L36.1439 79.0967C37.6977 78.413 39.4923 78.5649 40.9091 79.5V79.5C42.3259 80.4351 44.1205 80.587 45.6743 79.9033L46.9541 79.3402C48.8949 78.4862 51.1051 78.4862 53.0459 79.3402L53.7723 79.6598C55.7131 80.5138 57.9233 80.5138 59.8641 79.6598L61.1439 79.0967C62.6977 78.413 64.4923 78.5649 65.9091 79.5V79.5C67.3259 80.4351 69.1205 80.587 70.6743 79.9033L75 78" stroke="#DEAD60" stroke-width="5" stroke-linecap="round"/>
</svg>
